<?xml version="1.0" encoding="utf-8"?>
<!-- Generator: Adobe Illustrator 19.0.0, SVG Export Plug-In . SVG Version: 6.00 Build 0)  -->
<svg version="1.1" id="图层_1" xmlns="http://www.w3.org/2000/svg" xmlns:xlink="http://www.w3.org/1999/xlink" x="0px" y="0px"
	 viewBox="-107 50.7 40 40" style="enable-background:new -107 50.7 40 40;" xml:space="preserve">
<path class="st0" d="M-87,52.7c-9.9,0-18,8.1-18,18c0,6.3,3.2,11.8,8.1,15V62.6c0-0.5,0.4-0.9,0.9-0.9h3.6c0.5,0,0.9,0.4,0.9,0.9
	v9.6c0.1,2.3,0.4,3.9,2.7,3.9c2.9,0,4.4-1.8,4.5-5.1c0,0,0,0,0,0v-8.4c0-0.6,0.4-1,1-1h3.4c0.5,0,1,0.4,1,1v12.4c0,0,0,0.1,0,0.1
	c0.1,1.5,0.4,2.7,1.5,2.7c0.9,0,2.1-0.9,2.1-0.9c-0.4,2.6-2.3,3.6-4.5,3.6c-1.9,0-3.6-1.5-4.2-3.5c-1,2.1-3.2,3.6-5.7,3.6
	c-1.6,0-3-0.6-4.2-1.6c-0.2,0.8-0.3,1.6-0.3,2.5c0,2.7,1.2,5.1,3,6.7c1.3,0.3,2.8,0.5,4.2,0.5c9.9,0,18-8.1,18-18
	S-77.1,52.7-87,52.7z"/>
</svg>
