<?xml version="1.0" standalone="no"?>
<!DOCTYPE svg PUBLIC "-//W3C//DTD SVG 1.1//EN" "http://www.w3.org/Graphics/SVG/1.1/DTD/svg11.dtd">
<svg style="" viewBox="0 0 1024 1024" version="1.1" xmlns="http://www.w3.org/2000/svg" xmlns:xlink="http://www.w3.org/1999/xlink" width="200" height="200">
  <path d="M883.626667 426.410667 960.810667 503.594667C956.074667 506.005333 951.744 509.013333 947.413333 512L981.333333 512C981.333333 606.250667 904.917333 682.666667 810.666667 682.666667 728.554667 682.666667 660.032 624.661333 643.733333 547.413333L641.066667 544.768 642.944 542.890667C641.088 532.864 640 522.56 640 512L673.834667 512 810.666667 375.168 810.666667 298.666667 632.170667 298.666667C619.285333 334.869333 590.869333 363.285333 554.666667 376.170667L554.666667 725.333333 640 725.333333 640 810.666667 682.666667 810.666667 682.666667 896 341.333333 896 341.333333 810.666667 384 810.666667 384 725.333333 469.333333 725.333333 469.333333 376.170667C433.130667 363.285333 404.714667 334.869333 391.829333 298.666667L214.314667 298.666667 214.314667 375.594667 350.378667 512 384 512C384 522.517333 382.912 532.778667 381.077333 542.762667L384.256 545.962667 379.392 550.848C361.792 626.346667 294.208 682.666667 213.333333 682.666667 119.082667 682.666667 42.666667 606.250667 42.666667 512L75.605333 512C71.744 509.44 68.010667 506.730667 63.850667 504.618667L141.205333 427.072 171.818667 457.749333 117.717333 512 289.92 512 184.085333 405.909333 171.562667 405.909333 171.562667 298.666667 128 298.666667 128 213.333333 391.829333 213.333333C409.472 163.733333 456.341333 128 512 128 567.658667 128 614.528 163.733333 632.170667 213.333333L896 213.333333 896 298.666667 853.333333 298.666667 853.333333 405.333333 840.832 405.333333 734.165333 512 908.117333 512 853.077333 456.96 883.626667 426.410667ZM512 213.333333C488.426667 213.333333 469.333333 232.426667 469.333333 256 469.333333 279.573333 488.426667 298.666667 512 298.666667 535.573333 298.666667 554.666667 279.573333 554.666667 256 554.666667 232.426667 535.573333 213.333333 512 213.333333Z"></path>
</svg>
