<?xml version="1.0" encoding="UTF-8"?>
<svg width="18px" height="18px" viewBox="0 0 18 18" version="1.1" xmlns="http://www.w3.org/2000/svg" xmlns:xlink="http://www.w3.org/1999/xlink">
  <path d="M15.3455875,2.63461029 C11.8324413,-0.87820343 6.15706676,-0.87820343 2.64461334,2.63461029 C-0.870084889,6.14803368 -0.887156362,11.8414219 2.62723703,15.3549284 C6.13944105,18.8679916 11.8505381,18.8679916 15.3636013,15.3549284 C18.8771078,11.8414219 18.8590109,6.14803368 15.3455875,2.63461029 L15.3455875,2.63461029 L15.3455875,2.63461029 Z M12.3240495,8.49854685 L12.3240495,10.2753369 L9.8899804,10.2753369 L9.8899804,10.9892622 L12.3240495,10.9892622 L12.3240495,12.740057 L9.8899804,12.740057 L9.8899804,14.6359317 L7.93527022,14.6359317 L7.93527022,12.740057 L5.51073454,12.740057 L5.51073454,10.9892622 L7.93527022,10.9892622 L7.93527022,10.2753369 L5.51073454,10.2753369 L5.51073454,8.49854685 L6.98583639,8.49854685 L4.73866656,4.11833101 L6.96463562,4.11833101 L8.409419,7.11994309 C8.59376862,7.50660064 8.72282998,7.74277435 8.8003167,8.0364811 C8.89301807,7.71835883 9.02166373,7.48093801 9.19182409,7.11994309 L10.6656234,4.11833101 L12.8905671,4.11833101 L10.6151019,8.49854685 L12.3240495,8.49854685 L12.3240495,8.49854685 L12.3240495,8.49854685 Z" id="Shape"></path>
</svg>
