<?xml version="1.0" encoding="UTF-8"?>
<svg width="18px" height="18px" viewBox="0 0 18 18" version="1.1" xmlns="http://www.w3.org/2000/svg" xmlns:xlink="http://www.w3.org/1999/xlink">
  <path d="M6.0432094,9.26102216 L1.92283935,9.26102216 C0.863315625,9.26102216 0,10.1243378 0,11.1838615 L0,15.3042315 C1.7628071e-08,16.4029969 0.863315643,17.2663125 1.92283935,17.2663125 L6.04320938,17.2663125 C7.1027331,17.2663125 7.96604873,16.4029969 7.96604873,15.3434732 L7.96604875,11.2231031 C8.00529037,10.1243378 7.14197474,9.26102216 6.0432094,9.26102216 L6.0432094,9.26102216 Z M6.0432094,-1.77635684e-15 L1.92283935,-1.77635684e-15 C0.863315643,-1.77635684e-15 1.76278263e-08,0.863315625 1.76278263e-08,1.92283933 L1.76278263e-08,6.04320936 C1.76278263e-08,7.10273309 0.863315643,7.96604871 1.92283937,7.96604871 L6.0432094,7.96604871 C7.10273312,7.96604871 7.96604875,7.10273309 7.96604875,6.04320936 L7.96604875,1.92283933 C8.00529037,0.863315625 7.14197474,-1.77635684e-15 6.0432094,-1.77635684e-15 L6.0432094,-1.77635684e-15 Z M15.3434732,9.26102216 L11.2231031,9.26102216 C10.1635794,9.26102216 9.3002638,10.1243378 9.3002638,11.1838615 L9.3002638,15.3042315 C9.3002638,16.3637553 10.1635794,17.2270709 11.2231031,17.2270709 L15.3434732,17.2270709 C16.4029969,17.2270709 17.2663125,16.3637553 17.2663125,15.3042315 L17.2663125,11.2231031 C17.2663125,10.1243378 16.4029969,9.26102216 15.3434732,9.26102216 L15.3434732,9.26102216 Z M15.3434732,-1.77635684e-15 L11.2231031,-1.77635684e-15 C10.1635794,-1.77635684e-15 9.3002638,0.863315625 9.3002638,1.92283935 L9.3002638,6.04320938 C9.3002638,7.1027331 10.1635794,7.96604873 11.2231031,7.96604873 L15.3434732,7.96604873 C16.4029969,7.96604873 17.2663125,7.1027331 17.2663125,6.04320938 L17.2663125,1.92283933 C17.2663125,0.863315625 16.4029969,-1.77635684e-15 15.3434732,-1.77635684e-15 L15.3434732,-1.77635684e-15 Z" id="Shape"></path>
</svg>
