<?xml version="1.0" standalone="no"?>
<!DOCTYPE svg PUBLIC "-//W3C//DTD SVG 1.1//EN" "http://www.w3.org/Graphics/SVG/1.1/DTD/svg11.dtd">
<svg viewBox="0 0 1024 1024" version="1.1" xmlns="http://www.w3.org/2000/svg" xmlns:xlink="http://www.w3.org/1999/xlink" width="200" height="200">
  <path d="M729.856773 109.61656c-81.499176 0-155.63157-16.84055-212.06179-44.326555h-3.576455c-56.429197 27.486004-130.562615 44.326555-212.06179 44.326555-43.675732 0-85.198427-4.881171-123.059734-13.607926-20.147876-4.643764-38.966477 12.549827-39.068807 35.265178-0.464581 102.337783-0.053212 305.025065 8.501628 471.815789 11.231809 218.99162 324.265268 341.158007 363.455849 355.609137v0.010233l0.013303-0.005116 0.013303 0.005116v-0.010233c39.190581-14.45113 352.223017-136.617517 363.454825-355.609137 8.503675-165.774581 8.962116-366.972952 8.510838-469.888903-0.100284-22.935362-19.126616-39.507806-39.540552-35.20378-35.561937 7.496741-74.18356 11.619642-114.580618 11.619642z" fill="" p-id="2253"></path>
</svg>
